ffmpeg version 2.8.4-tessus Copyright (c) 2000-2015 the FFmpeg developers
  built with Apple LLVM version 6.0 (clang-600.0.57) (based on LLVM 3.5svn)
  configuration: --cc=/usr/bin/clang --prefix=/opt/ffmpeg --as=yasm --extra-version=tessus --enable-avisynth --enable-fontconfig --enable-gpl --enable-libass --enable-libbluray --enable-libfreetype --enable-libgsm --enable-libmodplug --enable-libmp3lame --enable-libopencore-amrnb --enable-libopencore-amrwb --enable-libopus --enable-libschroedinger --enable-libsoxr --enable-libspeex --enable-libtheora --enable-libvidstab --enable-libvo-aacenc --enable-libvo-amrwbenc --enable-libvorbis --enable-libvpx --enable-libwavpack --enable-libx264 --enable-libx265 --enable-libxavs --enable-libxvid --enable-libzmq --enable-version3 --disable-ffplay --disable-indev=qtkit --disable-indev=x11grab_xcb
  libavutil      54. 31.100 / 54. 31.100
  libavcodec     56. 60.100 / 56. 60.100
  libavformat    56. 40.101 / 56. 40.101
  libavdevice    56.  4.100 / 56.  4.100
  libavfilter     5. 40.101 /  5. 40.101
  libswscale      3.  1.101 /  3.  1.101
  libswresample   1.  2.101 /  1.  2.101
  libpostproc    53.  3.100 / 53.  3.100
Input #0, matroska,webm, from 'tmp/D06wXVqaqS.webm':
  Metadata:
    encoder         : Lavf56.40.101
  Duration: 00:00:01.20, start: 0.000000, bitrate: 78 kb/s
    Stream #0:0: Video: vp9 (Profile 0), yuv420p(tv), 500x270, SAR 1:1 DAR 50:27, 10 fps, 10 tbr, 1k tbn, 1k tbc (default)
Input #1, matroska,webm, from 'tmp/P8Dw0uiQ8e.webm':
  Metadata:
    encoder         : Lavf56.40.101
  Duration: 00:00:04.00, start: 0.000000, bitrate: 154 kb/s
    Stream #1:0: Video: vp9 (Profile 0), yuv420p(tv), 320x240, SAR 1:1 DAR 4:3, 10 fps, 10 tbr, 1k tbn, 1k tbc (default)
[libvpx-vp9 @ 0x7fa09a004600] v1.3.0
Output #0, webm, to 'tmp/s9gVpzN2Cq.webm':
  Metadata:
    encoder         : Lavf56.40.101
    Stream #0:0: Video: vp9 (libvpx-vp9), yuv420p, 400x400 [SAR 1:1 DAR 1:1], q=-1--1, 200 kb/s, 10 fps, 1k tbn, 10 tbc (default)
    Metadata:
      encoder         : Lavc56.60.100 libvpx-vp9
Stream mapping:
  Stream #0:0 (vp9) -> scale
  Stream #1:0 (vp9) -> scale
  concat -> Stream #0:0 (libvpx-vp9)
Press [q] to stop, [?] for help
frame=   27 fps=0.0 q=0.0 size=       5kB time=00:00:00.30 bitrate= 135.9kbits/s    frame=   31 fps= 29 q=0.0 size=       6kB time=00:00:00.70 bitrate=  66.7kbits/s    frame=   34 fps= 20 q=0.0 size=       7kB time=00:00:01.00 bitrate=  53.3kbits/s    frame=   36 fps= 16 q=0.0 size=       7kB time=00:00:01.20 bitrate=  48.0kbits/s    frame=   38 fps= 12 q=0.0 size=      10kB time=00:00:01.40 bitrate=  56.7kbits/s    frame=   39 fps= 10 q=0.0 size=      12kB time=00:00:01.50 bitrate=  65.2kbits/s    frame=   40 fps=8.6 q=0.0 size=      12kB time=00:00:01.60 bitrate=  62.5kbits/s    frame=   42 fps=7.3 q=0.0 size=      13kB time=00:00:01.80 bitrate=  58.9kbits/s    frame=   44 fps=6.3 q=0.0 size=      14kB time=00:00:02.00 bitrate=  59.1kbits/s    frame=   45 fps=5.9 q=0.0 size=      15kB time=00:00:02.10 bitrate=  57.9kbits/s    frame=   46 fps=5.6 q=0.0 size=      15kB time=00:00:02.20 bitrate=  57.0kbits/s    frame=   47 fps=5.4 q=0.0 size=      17kB time=00:00:02.30 bitrate=  58.8kbits/s    frame=   48 fps=5.1 q=0.0 size=      18kB time=00:00:02.40 bitrate=  60.6kbits/s    frame=   49 fps=4.8 q=0.0 size=      19kB time=00:00:02.50 bitrate=  62.5kbits/s    frame=   50 fps=4.6 q=0.0 size=      20kB time=00:00:02.60 bitrate=  63.7kbits/s    frame=   51 fps=4.4 q=0.0 size=      24kB time=00:00:02.70 bitrate=  72.5kbits/s    frame=   52 fps=4.0 q=0.0 size=      25kB time=00:00:02.80 bitrate=  72.1kbits/s    frame=   52 fps=3.9 q=0.0 size=      25kB time=00:00:02.80 bitrate=  72.1kbits/s    frame=   52 fps=1.8 q=0.0 Lsize=      92kB time=00:00:05.20 bitrate= 145.4kbits/s    
video:91kB audio:0kB subtitle:0kB other streams:0kB global headers:0kB muxing overhead: 0.923465%
